<svg width="56" height="49" viewBox="0 0 56 49" fill="none" xmlns="http://www.w3.org/2000/svg">
<path fill-rule="evenodd" clip-rule="evenodd" d="M8.63147 33.6547L5.70191 34.8217L5.54462 44.3252L15.6858 40.2854C12.2075 39.0114 9.6674 36.7697 8.63147 33.6547" fill="#FDBD39"/>
<path fill-rule="evenodd" clip-rule="evenodd" d="M10.1646 23.603L0 27.6522L5.70192 34.8217L8.63148 33.6546C7.59857 30.5487 8.23556 27.0377 10.1646 23.603" fill="#F69833"/>
<path fill-rule="evenodd" clip-rule="evenodd" d="M27.2698 9.88992C14.3262 15.0461 5.98147 25.686 8.63149 33.6547L55.5046 14.9824C52.8546 7.01365 40.2135 4.7337 27.2698 9.88992Z" fill="#FECF33"/>
<path fill-rule="evenodd" clip-rule="evenodd" d="M36.8663 38.7471C49.81 33.5909 58.1703 22.9982 55.5046 14.9823L8.63148 33.6546C11.2971 41.6705 23.9226 43.9033 36.8663 38.7471Z" fill="#EE6723"/>
<path fill-rule="evenodd" clip-rule="evenodd" d="M55.5046 14.9823L8.63148 33.6546C9.54932 36.4146 13.0494 37.7744 17.9605 37.7744C22.7483 37.7744 28.8772 36.4829 35.2669 33.9375C48.2106 28.7813 57.3173 20.4331 55.5046 14.9823" fill="#F69833"/>
<path fill-rule="evenodd" clip-rule="evenodd" d="M46.1756 10.8625C41.3877 10.8625 35.2589 12.154 28.8692 14.6994C15.9255 19.8556 6.81878 28.2038 8.63147 33.6546L55.5046 14.9823C54.5868 12.2223 51.0867 10.8625 46.1756 10.8625" fill="#FDBD39"/>
<path fill-rule="evenodd" clip-rule="evenodd" d="M43.587 44.8285H43.5867C42.2076 44.8285 40.173 43.4701 37.5394 40.7911C34.4237 37.6216 30.8547 32.9793 27.4896 27.7195C24.1247 22.4598 21.3596 17.2014 19.7039 12.9128C17.9 8.23934 17.6428 5.36576 18.9394 4.37188C19.2237 4.15419 19.5665 4.0439 19.958 4.0439C21.0127 4.0439 23.0679 4.90021 26.8682 8.97988L26.9513 9.06904L26.94 9.19584C26.914 9.48892 26.8901 9.78463 26.8688 10.0749L26.8264 10.6512L26.4536 10.2416C22.3589 5.74321 20.5564 5.25757 19.9714 5.25757C19.8046 5.25757 19.6718 5.29456 19.5765 5.36757C19.0141 5.79851 18.9779 7.90923 20.7268 12.4397C22.353 16.6518 25.0778 21.8307 28.3993 27.0222C31.7209 32.2143 35.2353 36.7879 38.2954 39.9008C41.5951 43.2573 43.0821 43.6198 43.5682 43.6198C43.7361 43.6198 43.8725 43.5805 43.9737 43.5029C44.567 43.0483 44.5677 40.7871 42.6173 35.9109L42.5278 35.687L42.7238 35.57C42.9198 35.453 43.1094 35.3378 43.2872 35.2275L43.522 35.082L43.6302 35.3525C45.0132 38.8077 46.3059 43.1992 44.6108 44.4986C44.325 44.7175 43.9806 44.8285 43.587 44.8285V44.8285ZM43.5867 44.2955H43.587L43.5868 44.562L43.5867 44.2955Z" fill="#EE6723"/>
<path fill-rule="evenodd" clip-rule="evenodd" d="M37.1805 38.6018L37.1608 38.8673C36.8336 43.2827 35.9719 48.591 33.7254 48.8058C33.6802 48.8102 33.6333 48.8125 33.5865 48.8125C32.0603 48.8125 30.6165 46.4281 29.2951 41.7254C28.0449 37.2764 27.0748 31.3029 26.5634 24.9054C26.052 18.5092 26.0596 12.4421 26.585 7.82188C27.1575 2.78726 28.2476 0.158022 29.8248 0.00710254C29.8714 0.00241558 29.9197 0 29.9674 0C31.0745 0 32.7431 1.367 34.4512 7.73427L33.3359 7.96901C32.7656 5.84124 32.144 4.11068 31.527 2.92152C30.9562 1.8216 30.4013 1.21587 29.9643 1.21587C29.9499 1.21587 29.9354 1.21652 29.9212 1.21785C29.2376 1.28332 28.242 3.09152 27.687 7.972C27.171 12.5093 27.1648 18.4855 27.6695 24.7996C28.1744 31.1147 29.1287 36.9989 30.3565 41.3682C30.9064 43.3251 31.5095 44.9378 32.1007 46.0322C32.6458 47.0413 33.1734 47.5971 33.5861 47.5971C33.6003 47.5971 33.6145 47.5964 33.6286 47.5951C34.2827 47.5326 35.5153 45.651 36.0341 39.0308L37.1805 38.6018" fill="#EE6723"/>
</svg>
